<?xml version="1.0" encoding="utf-8"?>
<!-- Generator: Adobe Illustrator 21.1.0, SVG Export Plug-In . SVG Version: 6.00 Build 0)  -->
<svg version="1.1" id="Layer_1" xmlns="http://www.w3.org/2000/svg" xmlns:xlink="http://www.w3.org/1999/xlink" x="0px" y="0px"
	 viewBox="0 0 334.3 94" style="enable-background:new 0 0 334.3 94;" xml:space="preserve">
<style type="text/css">
	.st0{fill:#FFFFFF;}
</style>
<g>
	<g>
		<g>
			<path class="st0" d="M45.5,36c0,12.1-1.7,20.8-5.1,26.1c-2.8,4.3-6.9,6.4-12.3,6.4s-9.5-2.1-12.3-6.4c-3.4-5.3-5.1-14-5.1-26.1
				s1.7-20.8,5.1-26.1c2.8-4.3,6.9-6.4,12.3-6.4s9.5,2.1,12.3,6.4C43.8,15.2,45.5,23.8,45.5,36z M33.1,36c0-14.7-1.7-22.1-5-22.1
				s-5,7.4-5,22.1s1.7,22.1,5,22.1S33.1,50.7,33.1,36z"/>
			<path class="st0" d="M80.3,44.2c0,8-2.4,14.1-7.1,18.5c-3.3,3.1-6.9,4.7-10.8,5.1v14.3H50.9v-57h10.9v2.5l2.7-2.8
				c0.3-0.1,0.6-0.1,1.1-0.1c4.2-0.3,7.6,1.2,10.3,4.4C78.8,32.7,80.3,37.7,80.3,44.2z M68.8,43.3c0-2.6-0.4-4.7-1.2-6.4
				c-0.8-1.7-1.7-2.4-2.8-2.4c-1.2,0-2,0.6-2.5,2v21c1.6-0.3,3.1-1.5,4.3-3.6C68.1,51.3,68.8,47.8,68.8,43.3z"/>
			<path class="st0" d="M105.5,67.7c-1.1,0.2-2.2,0.2-3.3,0.2c-3.6,0-6.8-1.1-9.5-3.4c-4.1-3.4-6.1-8.7-6.1-16.1v-13h-3.3V25.1h3.3
				V13.7h11.2v11.4h6.8v10.3h-6.5v14.7c0,2.7,0.5,4.7,1.5,6.2c1,1.4,2.3,2.1,3.8,2.1c0.5,0,1.2,0,2.1,0V67.7L105.5,67.7z"/>
			<path class="st0" d="M121.5,67.9h-11.6V25.2h11.6C121.5,25.2,121.5,67.9,121.5,67.9z M121.2,19.2h-10.9V4h10.9V19.2z"/>
			<path class="st0" d="M160.8,24.2c0,8.2-2.8,14.7-8.4,19.5c-3.2,2.8-6.8,4.6-10.7,5.7V68h-12.4V4h9.5c6.6,0,11.9,1.8,15.9,5.4
				C158.8,12.9,160.8,17.9,160.8,24.2z M148.3,24c0-6.4-2.2-9.5-6.6-9.5v22.8c1.3,0,2.6-1,4-2.9C147.4,31.8,148.3,28.4,148.3,24z"/>
			<path class="st0" d="M184.5,35.4h-0.8c-2.1,0-3.8,0.8-5.3,2.3c-1.6,1.7-2.4,3.9-2.4,6.6V68h-11.5V25.2h10.9v4.2
				c1.6-2.8,4.3-4.2,8-4.2h1.1V35.4L184.5,35.4z"/>
			<path class="st0" d="M216.8,46.5c0,8.3-1.9,14.3-5.7,18c-2.5,2.5-5.7,3.8-9.4,3.8s-6.8-1.3-9.4-3.8c-3.8-3.6-5.7-9.7-5.7-18
				s1.9-14.3,5.7-18c2.5-2.5,5.7-3.8,9.4-3.8s6.8,1.3,9.4,3.8C214.9,32.2,216.8,38.2,216.8,46.5z M205.3,46.5
				c0-7.7-1.2-11.5-3.5-11.5s-3.5,3.8-3.5,11.5s1.2,11.5,3.5,11.5S205.3,54.2,205.3,46.5z"/>
			<path class="st0" d="M248.9,67.9H223V48.2h-3.3V37.9h3.3V4h25.9v10.3h-13.5V38h10.9v10.3h-10.9v9.5h13.5V67.9z"/>
			<path class="st0" d="M285.9,23.8c0,9.4-2.9,16.1-8.7,20c2.7,3.2,4.8,6.6,6.2,10.2c1.5,3.8,2.3,8.4,2.3,13.9h-12.4
				c0-3.7-0.6-6.9-1.7-9.7c-1.3-3.2-2.9-5.7-4.7-7.5v17.2h-12.4V4h9.8c6.3,0,11.4,1.6,15.3,4.8C283.8,12.3,285.9,17.4,285.9,23.8z
				 M273.4,23.9c0-6.3-2.2-9.5-6.6-9.5v22.8c1.2,0,2.5-1.2,4-3.5C272.6,31,273.4,27.8,273.4,23.9z"/>
			<path class="st0" d="M323.7,24.2c0,8.2-2.8,14.7-8.4,19.5c-3.2,2.8-6.8,4.6-10.7,5.7V68h-12.4V4h9.5c6.6,0,11.9,1.8,15.9,5.4
				C321.7,12.9,323.7,17.9,323.7,24.2z M311.3,24c0-6.4-2.2-9.5-6.6-9.5v22.8c1.3,0,2.6-1,4-2.9C310.3,31.8,311.3,28.4,311.3,24z"/>
		</g>
	</g>
</g>
<g>
	<path class="st0" d="M77.9,91.2l-3.8-12.3H74c0.1,2.5,0.2,4.2,0.2,5v7.3h-3V75.5h4.5l3.7,12h0.1l3.9-12h4.5v15.7h-3.1v-7.4
		c0-0.4,0-0.8,0-1.2s0.1-1.7,0.1-3.7h-0.1l-4,12.3C80.8,91.2,77.9,91.2,77.9,91.2z"/>
	<path class="st0" d="M104.9,91.2l-1.1-3.7h-5.7L97,91.2h-3.7l5.5-15.8h4.1l5.6,15.8H104.9z M103,84.7c-1.1-3.4-1.6-5.3-1.8-5.7
		c-0.1-0.4-0.2-0.8-0.3-1.1c-0.2,0.9-0.9,3.2-2,6.8C98.9,84.7,103,84.7,103,84.7z"/>
	<path class="st0" d="M127.7,91.2h-4.2l-6.8-11.9h-0.1c0.1,2.1,0.2,3.6,0.2,4.5v7.4h-3V75.5h4.2l6.8,11.8h0.1
		c-0.1-2-0.2-3.5-0.2-4.3v-7.4h3V91.2z"/>
	<path class="st0" d="M147.7,75.5v10.2c0,1.2-0.3,2.2-0.8,3.1s-1.3,1.5-2.3,2s-2.1,0.7-3.5,0.7c-2,0-3.6-0.5-4.7-1.6
		c-1.1-1-1.7-2.5-1.7-4.2V75.5h3.3v9.6c0,1.2,0.2,2.1,0.7,2.7s1.3,0.8,2.4,0.8c1.1,0,1.9-0.3,2.4-0.9s0.7-1.5,0.7-2.7v-9.6
		L147.7,75.5L147.7,75.5z"/>
	<path class="st0" d="M158.2,91.2h-3.3V75.5h9v2.7h-5.7v4h5.3V85h-5.3V91.2z"/>
	<path class="st0" d="M179.9,91.2l-1.1-3.7h-5.7l-1.1,3.7h-3.7l5.5-15.8h4.1l5.6,15.8H179.9z M177.9,84.7c-1.1-3.4-1.6-5.3-1.8-5.7
		c-0.1-0.4-0.2-0.8-0.3-1.1c-0.2,0.9-0.9,3.2-2,6.8C173.8,84.7,177.9,84.7,177.9,84.7z"/>
	<path class="st0" d="M195.4,78.1c-1.3,0-2.2,0.5-2.9,1.4s-1,2.3-1,3.9c0,3.5,1.3,5.3,3.9,5.3c1.1,0,2.4-0.3,4-0.8v2.8
		c-1.3,0.5-2.7,0.8-4.3,0.8c-2.3,0-4-0.7-5.2-2.1s-1.8-3.4-1.8-6c0-1.6,0.3-3.1,0.9-4.3c0.6-1.2,1.4-2.2,2.6-2.8
		c1.1-0.7,2.4-1,3.9-1s3.1,0.4,4.6,1.1l-1.1,2.7c-0.6-0.3-1.2-0.5-1.8-0.7C196.6,78.2,196,78.1,195.4,78.1z"/>
	<path class="st0" d="M212.1,91.2h-3.3V78.3h-4.3v-2.8h11.9v2.8h-4.3L212.1,91.2L212.1,91.2z"/>
	<path class="st0" d="M234.9,75.5v10.2c0,1.2-0.3,2.2-0.8,3.1s-1.3,1.5-2.3,2s-2.1,0.7-3.5,0.7c-2,0-3.6-0.5-4.7-1.6
		c-1.1-1-1.7-2.5-1.7-4.2V75.5h3.3v9.6c0,1.2,0.2,2.1,0.7,2.7s1.3,0.8,2.4,0.8c1.1,0,1.9-0.3,2.4-0.9s0.7-1.5,0.7-2.7v-9.6
		L234.9,75.5L234.9,75.5z"/>
	<path class="st0" d="M245.4,85.2v6h-3.3V75.5h4.6c2.1,0,3.7,0.4,4.7,1.2c1,0.8,1.5,2,1.5,3.5c0,0.9-0.3,1.7-0.8,2.5
		c-0.5,0.7-1.2,1.3-2.2,1.7c2.4,3.5,3.9,5.8,4.6,6.8h-3.7l-3.7-6H245.4z M245.4,82.5h1.1c1.1,0,1.8-0.2,2.3-0.5
		c0.5-0.4,0.8-0.9,0.8-1.7c0-0.7-0.3-1.3-0.8-1.6c-0.5-0.3-1.3-0.5-2.4-0.5h-1L245.4,82.5L245.4,82.5z"/>
	<path class="st0" d="M259.9,91.2V75.5h3.3v15.7H259.9z"/>
	<path class="st0" d="M284.4,91.2h-4.2l-6.9-11.9h-0.1c0.1,2.1,0.2,3.6,0.2,4.5v7.4h-3V75.5h4.2l6.8,11.8h0.1
		c-0.1-2-0.2-3.5-0.2-4.3v-7.4h3v15.6H284.4z"/>
	<path class="st0" d="M297.6,82.4h6.2v8.1c-1,0.3-2,0.6-2.9,0.7s-1.8,0.2-2.7,0.2c-2.4,0-4.2-0.7-5.4-2.1c-1.3-1.4-1.9-3.4-1.9-6
		c0-2.5,0.7-4.5,2.2-5.9s3.5-2.1,6-2.1c1.6,0,3.2,0.3,4.7,1l-1.1,2.7c-1.1-0.6-2.3-0.9-3.6-0.9c-1.4,0-2.6,0.5-3.5,1.5
		s-1.3,2.3-1.3,3.9c0,1.7,0.3,3,1,3.9s1.7,1.3,3,1.3c0.7,0,1.4-0.1,2.1-0.2v-3.3h-3v-2.8C297.4,82.4,297.6,82.4,297.6,82.4z"/>
</g>
</svg>
