<?xml version="1.0" encoding="utf-8"?>
<!-- Generator: Adobe Illustrator 21.1.0, SVG Export Plug-In . SVG Version: 6.00 Build 0)  -->
<svg version="1.1" id="Layer_1" xmlns="http://www.w3.org/2000/svg" xmlns:xlink="http://www.w3.org/1999/xlink" x="0px" y="0px"
	 viewBox="0 0 313 88" style="enable-background:new 0 0 313 88;" xml:space="preserve">
<style type="text/css">
	.st0{fill:#1C8DCD;}
	.st1{fill:#EFAA1F;}
</style>
<g>
	<g>
		<g>
			<path class="st0" d="M34.8,32.5c0,12.1-1.7,20.8-5.1,26.1c-2.8,4.3-6.9,6.4-12.3,6.4s-9.5-2.1-12.3-6.4C1.7,53.3,0,44.6,0,32.5
				S1.7,11.7,5.1,6.4C7.9,2.1,12,0,17.4,0s9.5,2.1,12.3,6.4C33.1,11.7,34.8,20.3,34.8,32.5z M22.4,32.5c0-14.7-1.7-22.1-5-22.1
				s-5,7.4-5,22.1s1.7,22.1,5,22.1S22.4,47.2,22.4,32.5z"/>
			<path class="st0" d="M69.6,40.7c0,8-2.4,14.1-7.1,18.5c-3.3,3.1-6.9,4.7-10.8,5.1v14.3H40.2v-57h10.9v2.5l2.7-2.8
				c0.3-0.1,0.6-0.1,1.1-0.1c4.2-0.3,7.6,1.2,10.3,4.4C68.1,29.2,69.6,34.2,69.6,40.7z M58.1,39.8c0-2.6-0.4-4.7-1.2-6.4
				S55.2,31,54.1,31c-1.2,0-2,0.6-2.5,2v21c1.6-0.3,3.1-1.5,4.3-3.6C57.4,47.8,58.1,44.3,58.1,39.8z"/>
			<path class="st0" d="M94.8,64.2c-1.1,0.2-2.2,0.2-3.3,0.2c-3.6,0-6.8-1.1-9.5-3.4c-4.1-3.4-6.1-8.7-6.1-16.1v-13h-3.3V21.6h3.3
				V10.2h11.2v11.4h6.8v10.3h-6.5v14.7c0,2.7,0.5,4.7,1.5,6.2c1,1.4,2.3,2.1,3.8,2.1c0.5,0,1.2,0,2.1,0L94.8,64.2L94.8,64.2z"/>
			<path class="st0" d="M110.8,64.4H99.2V21.7h11.6V64.4z M110.5,15.7H99.6V0.5h10.9V15.7z"/>
			<path class="st0" d="M150.1,20.7c0,8.2-2.8,14.7-8.4,19.5c-3.2,2.8-6.8,4.6-10.7,5.7v18.6h-12.4v-64h9.5c6.6,0,11.9,1.8,15.9,5.4
				C148.1,9.4,150.1,14.4,150.1,20.7z M137.6,20.5c0-6.4-2.2-9.5-6.6-9.5v22.8c1.3,0,2.6-1,4-2.9C136.7,28.3,137.6,24.9,137.6,20.5z
				"/>
			<path class="st0" d="M173.8,31.9H173c-2.1,0-3.8,0.8-5.3,2.3c-1.6,1.7-2.4,3.9-2.4,6.6v23.7h-11.5V21.7h10.9v4.2
				c1.6-2.8,4.3-4.2,8-4.2h1.1V31.9L173.8,31.9z"/>
			<path class="st0" d="M206.1,43c0,8.3-1.9,14.3-5.7,18c-2.5,2.5-5.7,3.8-9.4,3.8s-6.8-1.3-9.4-3.8c-3.8-3.6-5.7-9.7-5.7-18
				s1.9-14.3,5.7-18c2.5-2.5,5.7-3.8,9.4-3.8s6.8,1.3,9.4,3.8C204.2,28.7,206.1,34.7,206.1,43z M194.6,43c0-7.7-1.2-11.5-3.5-11.5
				s-3.5,3.8-3.5,11.5s1.2,11.5,3.5,11.5S194.6,50.7,194.6,43z"/>
			<path class="st1" d="M238.2,64.4h-25.9V44.7H209V34.4h3.3V0.5h25.9v10.3h-13.5v23.7h10.9v10.3h-10.9v9.5h13.5V64.4z"/>
			<path class="st1" d="M275.2,20.3c0,9.4-2.9,16.1-8.7,20c2.7,3.2,4.8,6.6,6.2,10.2c1.5,3.8,2.3,8.4,2.3,13.9h-12.4
				c0-3.7-0.6-6.9-1.7-9.7c-1.3-3.2-2.9-5.7-4.7-7.5v17.2h-12.4V0.5h9.8c6.3,0,11.4,1.6,15.3,4.8C273.1,8.8,275.2,13.9,275.2,20.3z
				 M262.7,20.4c0-6.3-2.2-9.5-6.6-9.5v22.8c1.2,0,2.5-1.2,4-3.5C261.9,27.5,262.7,24.3,262.7,20.4z"/>
			<path class="st1" d="M313,20.7c0,8.2-2.8,14.7-8.4,19.5c-3.2,2.8-6.8,4.6-10.7,5.7v18.6h-12.4v-64h9.5c6.6,0,11.9,1.8,15.9,5.4
				C311,9.4,313,14.4,313,20.7z M300.6,20.5c0-6.4-2.2-9.5-6.6-9.5v22.8c1.3,0,2.6-1,4-2.9C299.6,28.3,300.6,24.9,300.6,20.5z"/>
		</g>
	</g>
</g>
<g>
	<path class="st0" d="M67.2,87.7l-3.8-12.3h-0.1c0.1,2.5,0.2,4.2,0.2,5v7.3h-3V72H65l3.7,12h0.1l3.9-12h4.5v15.7h-3.1v-7.4
		c0-0.4,0-0.8,0-1.2s0.1-1.7,0.1-3.7h-0.1l-4,12.3C70.1,87.7,67.2,87.7,67.2,87.7z"/>
	<path class="st0" d="M94.2,87.7L93.1,84h-5.7l-1.1,3.7h-3.7l5.5-15.8h4.1l5.6,15.8H94.2z M92.3,81.2c-1.1-3.4-1.6-5.3-1.8-5.7
		c-0.1-0.4-0.2-0.8-0.3-1.1c-0.2,0.9-0.9,3.2-2,6.8C88.2,81.2,92.3,81.2,92.3,81.2z"/>
	<path class="st0" d="M117,87.7h-4.2L106,75.8h-0.1c0.1,2.1,0.2,3.6,0.2,4.5v7.4h-3V72h4.2l6.8,11.8h0.1c-0.1-2-0.2-3.5-0.2-4.3
		v-7.4h3V87.7z"/>
	<path class="st0" d="M137,72v10.2c0,1.2-0.3,2.2-0.8,3.1s-1.3,1.5-2.3,2s-2.1,0.7-3.5,0.7c-2,0-3.6-0.5-4.7-1.6
		c-1.1-1-1.7-2.5-1.7-4.2V72h3.3v9.6c0,1.2,0.2,2.1,0.7,2.7c0.5,0.6,1.3,0.8,2.4,0.8c1.1,0,1.9-0.3,2.4-0.9s0.7-1.5,0.7-2.7v-9.6
		L137,72L137,72z"/>
	<path class="st0" d="M147.5,87.7h-3.3V72h9v2.7h-5.7v4h5.3v2.8h-5.3V87.7z"/>
	<path class="st0" d="M169.2,87.7l-1.1-3.7h-5.7l-1.1,3.7h-3.7l5.5-15.8h4.1l5.6,15.8H169.2z M167.2,81.2c-1.1-3.4-1.6-5.3-1.8-5.7
		c-0.1-0.4-0.2-0.8-0.3-1.1c-0.2,0.9-0.9,3.2-2,6.8C163.1,81.2,167.2,81.2,167.2,81.2z"/>
	<path class="st0" d="M184.7,74.6c-1.3,0-2.2,0.5-2.9,1.4s-1,2.3-1,3.9c0,3.5,1.3,5.3,3.9,5.3c1.1,0,2.4-0.3,4-0.8v2.8
		c-1.3,0.5-2.7,0.8-4.3,0.8c-2.3,0-4-0.7-5.2-2.1s-1.8-3.4-1.8-6c0-1.6,0.3-3.1,0.9-4.3c0.6-1.2,1.4-2.2,2.6-2.8
		c1.1-0.7,2.4-1,3.9-1s3.1,0.4,4.6,1.1l-1.1,2.7c-0.6-0.3-1.2-0.5-1.8-0.7C185.9,74.7,185.3,74.6,184.7,74.6z"/>
	<path class="st0" d="M201.4,87.7h-3.3V74.8h-4.3V72h11.9v2.8h-4.3L201.4,87.7L201.4,87.7z"/>
	<path class="st0" d="M224.2,72v10.2c0,1.2-0.3,2.2-0.8,3.1s-1.3,1.5-2.3,2S219,88,217.6,88c-2,0-3.6-0.5-4.7-1.6
		c-1.1-1-1.7-2.5-1.7-4.2V72h3.3v9.6c0,1.2,0.2,2.1,0.7,2.7s1.3,0.8,2.4,0.8c1.1,0,1.9-0.3,2.4-0.9s0.7-1.5,0.7-2.7v-9.6L224.2,72
		L224.2,72z"/>
	<path class="st0" d="M234.7,81.7v6h-3.3V72h4.6c2.1,0,3.7,0.4,4.7,1.2c1,0.8,1.5,2,1.5,3.5c0,0.9-0.3,1.7-0.8,2.5
		c-0.5,0.7-1.2,1.3-2.2,1.7c2.4,3.5,3.9,5.8,4.6,6.8h-3.7l-3.7-6H234.7z M234.7,79h1.1c1.1,0,1.8-0.2,2.3-0.5
		c0.5-0.4,0.8-0.9,0.8-1.7c0-0.7-0.3-1.3-0.8-1.6c-0.5-0.3-1.3-0.5-2.4-0.5h-1L234.7,79L234.7,79z"/>
	<path class="st0" d="M249.2,87.7V72h3.3v15.7H249.2z"/>
	<path class="st0" d="M273.7,87.7h-4.2l-6.9-11.9h-0.1c0.1,2.1,0.2,3.6,0.2,4.5v7.4h-3V72h4.2l6.8,11.8h0.1c-0.1-2-0.2-3.5-0.2-4.3
		v-7.4h3v15.6H273.7z"/>
	<path class="st0" d="M286.9,78.9h6.2V87c-1,0.3-2,0.6-2.9,0.7s-1.8,0.2-2.7,0.2c-2.4,0-4.2-0.7-5.4-2.1c-1.3-1.4-1.9-3.4-1.9-6
		c0-2.5,0.7-4.5,2.2-5.9s3.5-2.1,6-2.1c1.6,0,3.2,0.3,4.7,1l-1.1,2.7c-1.1-0.6-2.3-0.9-3.6-0.9c-1.4,0-2.6,0.5-3.5,1.5
		s-1.3,2.3-1.3,3.9c0,1.7,0.3,3,1,3.9s1.7,1.3,3,1.3c0.7,0,1.4-0.1,2.1-0.2v-3.3h-3v-2.8C286.7,78.9,286.9,78.9,286.9,78.9z"/>
</g>
</svg>
