<?xml version="1.0" encoding="UTF-8"?>
<svg enable-background="new 0 0 313 88" version="1.1" viewBox="0 0 313 88" xml:space="preserve" xmlns="http://www.w3.org/2000/svg">
	<style type="text/css">
		.st0{fill:#1C8DCD;}
		.st1{fill:#EFAA1F;}
	</style>
	<path class="st0" d="m34.8 32.5c0 12.1-1.7 20.8-5.1 26.1-2.8 4.3-6.9 6.4-12.3 6.4s-9.5-2.1-12.3-6.4c-3.4-5.3-5.1-14-5.1-26.1s1.7-20.8 5.1-26.1c2.8-4.3 6.9-6.4 12.3-6.4s9.5 2.1 12.3 6.4c3.4 5.3 5.1 13.9 5.1 26.1zm-12.4 0c0-14.7-1.7-22.1-5-22.1s-5 7.4-5 22.1 1.7 22.1 5 22.1 5-7.4 5-22.1z"/>
	<path class="st0" d="m69.6 40.7c0 8-2.4 14.1-7.1 18.5-3.3 3.1-6.9 4.7-10.8 5.1v14.3h-11.5v-57h10.9v2.5l2.7-2.8c0.3-0.1 0.6-0.1 1.1-0.1 4.2-0.3 7.6 1.2 10.3 4.4 2.9 3.6 4.4 8.6 4.4 15.1zm-11.5-0.9c0-2.6-0.4-4.7-1.2-6.4s-1.7-2.4-2.8-2.4c-1.2 0-2 0.6-2.5 2v21c1.6-0.3 3.1-1.5 4.3-3.6 1.5-2.6 2.2-6.1 2.2-10.6z"/>
	<path class="st0" d="m94.8 64.2c-1.1 0.2-2.2 0.2-3.3 0.2-3.6 0-6.8-1.1-9.5-3.4-4.1-3.4-6.1-8.7-6.1-16.1v-13h-3.3v-10.3h3.3v-11.4h11.2v11.4h6.8v10.3h-6.5v14.7c0 2.7 0.5 4.7 1.5 6.2 1 1.4 2.3 2.1 3.8 2.1h2.1v9.3z"/>
	<path class="st0" d="M110.8,64.4H99.2V21.7h11.6V64.4z M110.5,15.7H99.6V0.5h10.9V15.7z"/>
	<path class="st0" d="m150.1 20.7c0 8.2-2.8 14.7-8.4 19.5-3.2 2.8-6.8 4.6-10.7 5.7v18.6h-12.4v-64h9.5c6.6 0 11.9 1.8 15.9 5.4 4.1 3.5 6.1 8.5 6.1 14.8zm-12.5-0.2c0-6.4-2.2-9.5-6.6-9.5v22.8c1.3 0 2.6-1 4-2.9 1.7-2.6 2.6-6 2.6-10.4z"/>
	<path class="st0" d="m173.8 31.9h-0.8c-2.1 0-3.8 0.8-5.3 2.3-1.6 1.7-2.4 3.9-2.4 6.6v23.7h-11.5v-42.8h10.9v4.2c1.6-2.8 4.3-4.2 8-4.2h1.1v10.2z"/>
	<path class="st0" d="m206.1 43c0 8.3-1.9 14.3-5.7 18-2.5 2.5-5.7 3.8-9.4 3.8s-6.8-1.3-9.4-3.8c-3.8-3.6-5.7-9.7-5.7-18s1.9-14.3 5.7-18c2.5-2.5 5.7-3.8 9.4-3.8s6.8 1.3 9.4 3.8c3.8 3.7 5.7 9.7 5.7 18zm-11.5 0c0-7.7-1.2-11.5-3.5-11.5s-3.5 3.8-3.5 11.5 1.2 11.5 3.5 11.5 3.5-3.8 3.5-11.5z"/>
	<path class="st1" d="M238.2,64.4h-25.9V44.7H209V34.4h3.3V0.5h25.9v10.3h-13.5v23.7h10.9v10.3h-10.9v9.5h13.5V64.4z"/>
	<path class="st1" d="m275.2 20.3c0 9.4-2.9 16.1-8.7 20 2.7 3.2 4.8 6.6 6.2 10.2 1.5 3.8 2.3 8.4 2.3 13.9h-12.4c0-3.7-0.6-6.9-1.7-9.7-1.3-3.2-2.9-5.7-4.7-7.5v17.2h-12.4v-63.9h9.8c6.3 0 11.4 1.6 15.3 4.8 4.2 3.5 6.3 8.6 6.3 15zm-12.5 0.1c0-6.3-2.2-9.5-6.6-9.5v22.8c1.2 0 2.5-1.2 4-3.5 1.8-2.7 2.6-5.9 2.6-9.8z"/>
	<path class="st1" d="m313 20.7c0 8.2-2.8 14.7-8.4 19.5-3.2 2.8-6.8 4.6-10.7 5.7v18.6h-12.4v-64h9.5c6.6 0 11.9 1.8 15.9 5.4 4.1 3.5 6.1 8.5 6.1 14.8zm-12.4-0.2c0-6.4-2.2-9.5-6.6-9.5v22.8c1.3 0 2.6-1 4-2.9 1.6-2.6 2.6-6 2.6-10.4z"/>
	<path class="st0" d="m67.2 87.7l-3.8-12.3h-0.1c0.1 2.5 0.2 4.2 0.2 5v7.3h-3v-15.7h4.5l3.7 12h0.1l3.9-12h4.5v15.7h-3.1v-7.4-1.2s0.1-1.7 0.1-3.7h-0.1l-4 12.3h-2.9z"/>
	<path class="st0" d="m94.2 87.7l-1.1-3.7h-5.7l-1.1 3.7h-3.7l5.5-15.8h4.1l5.6 15.8h-3.6zm-1.9-6.5c-1.1-3.4-1.6-5.3-1.8-5.7-0.1-0.4-0.2-0.8-0.3-1.1-0.2 0.9-0.9 3.2-2 6.8h4.1z"/>
	<path class="st0" d="M117,87.7h-4.2L106,75.8h-0.1c0.1,2.1,0.2,3.6,0.2,4.5v7.4h-3V72h4.2l6.8,11.8h0.1c-0.1-2-0.2-3.5-0.2-4.3   v-7.4h3V87.7z"/>
	<path class="st0" d="m137 72v10.2c0 1.2-0.3 2.2-0.8 3.1s-1.3 1.5-2.3 2-2.1 0.7-3.5 0.7c-2 0-3.6-0.5-4.7-1.6-1.1-1-1.7-2.5-1.7-4.2v-10.2h3.3v9.6c0 1.2 0.2 2.1 0.7 2.7s1.3 0.8 2.4 0.8 1.9-0.3 2.4-0.9 0.7-1.5 0.7-2.7v-9.6l3.5 0.1z"/>
	<path class="st0" d="M147.5,87.7h-3.3V72h9v2.7h-5.7v4h5.3v2.8h-5.3V87.7z"/>
	<path class="st0" d="m169.2 87.7l-1.1-3.7h-5.7l-1.1 3.7h-3.7l5.5-15.8h4.1l5.6 15.8h-3.6zm-2-6.5c-1.1-3.4-1.6-5.3-1.8-5.7-0.1-0.4-0.2-0.8-0.3-1.1-0.2 0.9-0.9 3.2-2 6.8h4.1z"/>
	<path class="st0" d="m184.7 74.6c-1.3 0-2.2 0.5-2.9 1.4s-1 2.3-1 3.9c0 3.5 1.3 5.3 3.9 5.3 1.1 0 2.4-0.3 4-0.8v2.8c-1.3 0.5-2.7 0.8-4.3 0.8-2.3 0-4-0.7-5.2-2.1s-1.8-3.4-1.8-6c0-1.6 0.3-3.1 0.9-4.3s1.4-2.2 2.6-2.8c1.1-0.7 2.4-1 3.9-1s3.1 0.4 4.6 1.1l-1.1 2.7c-0.6-0.3-1.2-0.5-1.8-0.7s-1.2-0.3-1.8-0.3z"/>
	<path class="st0" d="m201.4 87.7h-3.3v-12.9h-4.3v-2.8h11.9v2.8h-4.3v12.9z"/>
	<path class="st0" d="m224.2 72v10.2c0 1.2-0.3 2.2-0.8 3.1s-1.3 1.5-2.3 2-2.1 0.7-3.5 0.7c-2 0-3.6-0.5-4.7-1.6-1.1-1-1.7-2.5-1.7-4.2v-10.2h3.3v9.6c0 1.2 0.2 2.1 0.7 2.7s1.3 0.8 2.4 0.8 1.9-0.3 2.4-0.9 0.7-1.5 0.7-2.7v-9.6l3.5 0.1z"/>
	<path class="st0" d="m234.7 81.7v6h-3.3v-15.7h4.6c2.1 0 3.7 0.4 4.7 1.2s1.5 2 1.5 3.5c0 0.9-0.3 1.7-0.8 2.5-0.5 0.7-1.2 1.3-2.2 1.7 2.4 3.5 3.9 5.8 4.6 6.8h-3.7l-3.7-6h-1.7zm0-2.7h1.1c1.1 0 1.8-0.2 2.3-0.5 0.5-0.4 0.8-0.9 0.8-1.7 0-0.7-0.3-1.3-0.8-1.6s-1.3-0.5-2.4-0.5h-1v4.3z"/>
	<path class="st0" d="M249.2,87.7V72h3.3v15.7H249.2z"/>
	<path class="st0" d="m273.7 87.7h-4.2l-6.9-11.9h-0.1c0.1 2.1 0.2 3.6 0.2 4.5v7.4h-3v-15.7h4.2l6.8 11.8h0.1c-0.1-2-0.2-3.5-0.2-4.3v-7.4h3v15.6h0.1z"/>
	<path class="st0" d="m286.9 78.9h6.2v8.1c-1 0.3-2 0.6-2.9 0.7s-1.8 0.2-2.7 0.2c-2.4 0-4.2-0.7-5.4-2.1-1.3-1.4-1.9-3.4-1.9-6 0-2.5 0.7-4.5 2.2-5.9s3.5-2.1 6-2.1c1.6 0 3.2 0.3 4.7 1l-1.1 2.7c-1.1-0.6-2.3-0.9-3.6-0.9-1.4 0-2.6 0.5-3.5 1.5s-1.3 2.3-1.3 3.9c0 1.7 0.3 3 1 3.9s1.7 1.3 3 1.3c0.7 0 1.4-0.1 2.1-0.2v-3.3h-3v-2.8h0.2z"/>
</svg>
