<?xml version="1.0" encoding="UTF-8"?>
<svg enable-background="new 0 0 486.988 486.988" version="1.1" viewBox="0 0 486.99 486.99" xml:space="preserve" xmlns="http://www.w3.org/2000/svg">
	<path d="m16.822 284.97h39.667v158.67c0 9.35 7.65 17 17 17h116.17c9.35 0 17-7.65 17-17v-116.17h70.833v116.17c0 9.35 7.65 17 17 17h110.5c9.35 0 17-7.65 17-17v-158.67h48.167c6.8 0 13.033-4.25 15.583-10.483s1.133-13.6-3.683-18.417l-221.57-224.68c-6.517-6.517-17.283-6.8-23.8-0.283l-231.48 224.68c-5.1 4.817-6.517 12.183-3.967 18.7 2.55 6.516 8.783 10.483 15.583 10.483zm231.2-217.6 181.33 183.6h-24.367c-9.35 0-17 7.65-17 17v158.67h-76.5v-116.17c0-9.35-7.65-17-17-17h-104.83c-9.35 0-17 7.65-17 17v116.17h-82.167v-158.67c0-9.35-7.65-17-17-17h-14.733l189.27-183.6z"/>
</svg>
