<?xml version="1.0" encoding="utf-8"?>
<!-- Generator: Adobe Illustrator 22.1.0, SVG Export Plug-In . SVG Version: 6.00 Build 0)  -->
<svg version="1.1" id="Capa_1" xmlns="http://www.w3.org/2000/svg" xmlns:xlink="http://www.w3.org/1999/xlink" x="0px" y="0px"
	 viewBox="0 0 66.9 66.9" style="enable-background:new 0 0 66.9 66.9;" xml:space="preserve">
<g>
	<g>
		<path d="M37.7,43.2c-0.8,0.8-0.8,2.2,0,3c0.4,0.4,0.9,0.6,1.4,0.6c0.5,0,1-0.2,1.4-0.6l11.3-11.3c0.4-0.4,0.6-0.9,0.6-1.4
			s-0.2-1.1-0.6-1.4L40.5,20.7c-0.8-0.8-2-0.8-2.8,0c-0.8,0.8-0.8,2,0,2.7l8,7.9h-29c-1.1,0-2,0.9-2,2s0.9,2,2,2h28.7L37.7,43.2z"/>
		<path d="M66.9,33.5C66.9,15,51.9,0,33.5,0C15,0,0,15,0,33.5c0,18.4,15,33.5,33.5,33.5S66.9,51.9,66.9,33.5z M4,33.5
			C4,17.2,17.2,4,33.5,4s29.5,13.2,29.5,29.5c0,16.2-13.2,29.5-29.5,29.5S4,49.7,4,33.5z"/>
	</g>
</g>
</svg>
