<?xml version="1.0" encoding="UTF-8"?>
<!DOCTYPE svg  PUBLIC '-//W3C//DTD SVG 1.1//EN'  'http://www.w3.org/Graphics/SVG/1.1/DTD/svg11.dtd'>
<svg enable-background="new 0 0 612 612" version="1.1" viewBox="0 0 612 612" xml:space="preserve" xmlns="http://www.w3.org/2000/svg">
	<path d="m310.63 43.714h-13.464c-7.194 0-13.026-5.833-13.026-13.026v-0.438c0-16.707-13.544-30.25-30.251-30.25h-0.699c-16.707 0-30.25 13.543-30.25 30.25v0.438c0 7.194-5.833 13.027-13.026 13.027h-13.464c-14.341 0-25.966 11.625-25.966 25.966v0.525c0 14.341 11.625 25.966 25.966 25.966h114.18c14.34 0 25.965-11.626 25.965-25.966v-0.526c-1e-3 -14.34-11.626-25.966-25.968-25.966zm-57.091 0c-7.243 0-13.114-5.872-13.114-13.114 0-7.243 5.872-13.115 13.114-13.115 7.243 0 13.114 5.872 13.114 13.115s-5.871 13.114-13.114 13.114zm58.386 507.09h-220.13c-19.314 0-34.971-15.657-34.971-34.971v-419.66c0-19.314 15.657-34.971 26.228-34.971h70.854c-0.591 2.904-0.91 5.914-0.91 9.008 0 23.958 19.492 43.45 43.454 43.45h114.18c23.963 0 43.453-19.492 43.453-43.979 0-2.903-0.311-5.733-0.855-8.479h53.312c28.059 0 43.715 15.657 43.715 34.971v262.73c-2.906-0.181-5.791-0.442-8.742-0.442-12.094 0-23.771 1.704-34.973 4.604v-205.69h-306v349.72h201.53c0.958 15.367 4.316 30.076 9.858 43.714zm129.59-166.11c-62.771 0-113.66 50.887-113.66 113.66s50.884 113.66 113.66 113.66 113.66-50.887 113.66-113.66-50.885-113.66-113.66-113.66zm74.267 90.305l-69.943 78.686c-3.445 3.877-8.244 5.865-13.076 5.865-3.838 0-7.697-1.255-10.916-3.833l-43.715-34.971c-7.539-6.028-8.764-17.034-2.727-24.573 6.027-7.547 17.037-8.769 24.576-2.731l30.748 24.598 58.916-66.28c6.408-7.215 17.465-7.872 24.684-1.451 7.221 6.42 7.869 17.468 1.453 24.69zm-152.95-168.99h-139.88c-4.829 0-8.743-3.915-8.743-8.743v-8.743c0-4.829 3.914-8.743 8.743-8.743h139.88c4.828 0 8.744 3.915 8.744 8.743v8.743c-2e-3 4.828-3.916 8.743-8.744 8.743zm0-78.686h-139.88c-4.829 0-8.743-3.915-8.743-8.743v-8.743c0-4.829 3.914-8.743 8.743-8.743h139.88c4.828 0 8.744 3.915 8.744 8.743v8.743c-2e-3 4.829-3.916 8.743-8.744 8.743zm-43.715 148.63h-96.17c-4.829 0-8.743-3.915-8.743-8.743v-8.743c0-4.829 3.914-8.743 8.743-8.743h96.17c4.83 0 8.744 3.914 8.744 8.743v8.743c-2e-3 4.828-3.914 8.743-8.744 8.743zm-17.485 78.686h-78.686c-4.829 0-8.743-3.915-8.743-8.743v-8.743c0-4.829 3.914-8.743 8.743-8.743h78.686c4.829 0 8.743 3.914 8.743 8.743v8.743c0 4.828-3.914 8.743-8.743 8.743zm-104.17-259.65l-32.199 36.224c-1.586 1.785-3.795 2.701-6.02 2.701-1.767 0-3.543-0.578-5.025-1.765l-20.125-16.099c-3.471-2.775-4.034-7.841-1.256-11.312 2.774-3.475 7.844-4.037 11.314-1.258l14.155 11.323 27.123-30.513c2.95-3.321 8.04-3.624 11.363-0.668 3.326 2.956 3.624 8.042 0.67 11.367zm0 77.786l-32.199 36.223c-1.586 1.785-3.795 2.7-6.02 2.7-1.767 0-3.543-0.577-5.025-1.765l-20.125-16.099c-3.471-2.775-4.034-7.841-1.256-11.312 2.774-3.475 7.844-4.037 11.314-1.258l14.155 11.324 27.123-30.513c2.95-3.321 8.04-3.624 11.363-0.667 3.326 2.955 3.624 8.042 0.67 11.367zm0 74.389l-32.199 36.224c-1.586 1.784-3.795 2.7-6.02 2.7-1.767 0-3.543-0.577-5.025-1.765l-20.125-16.1c-3.471-2.774-4.034-7.841-1.256-11.312 2.774-3.475 7.844-4.037 11.314-1.258l14.155 11.323 27.123-30.513c2.95-3.321 8.04-3.624 11.363-0.668 3.326 2.958 3.624 8.044 0.67 11.369zm0 74.914l-32.199 36.224c-1.586 1.785-3.795 2.7-6.02 2.7-1.767 0-3.543-0.577-5.025-1.765l-20.125-16.1c-3.471-2.774-4.034-7.841-1.256-11.312 2.774-3.475 7.844-4.037 11.314-1.258l14.155 11.323 27.123-30.513c2.95-3.321 8.04-3.624 11.363-0.668 3.326 2.958 3.624 8.045 0.67 11.369z"/>
</svg>
