<?xml version="1.0" encoding="UTF-8"?>
<svg enable-background="new 0 0 486.201 486.201" version="1.1" viewBox="0 0 486.201 486.201" xml:space="preserve" xmlns="http://www.w3.org/2000/svg">
	<path d="m308.3 259.7c0-7.3-6-13.4-13.4-13.4h-225c-7.3 0-13.4 6-13.4 13.4s6 13.4 13.4 13.4h225.1c7.3 0 13.3-6 13.3-13.4z"/>
	<path d="m296.1 192.9h-125.6c-7.3 0-13.4 6-13.4 13.4 0 7.3 6 13.4 13.4 13.4h125.6c7.3 0 13.4-6 13.4-13.4-0.1-7.4-6.1-13.4-13.4-13.4z"/>
	<path d="m338 415.4c0 16.5-13.4 29.9-29.9 29.9h-251.4c-16.5 0-29.9-13.4-29.9-29.9v-345c0-16.5 13.4-29.9 29.9-29.9h177.2v43.4c0 31.3 25.4 56.7 56.7 56.7h47.4v72.3c0.4-0.6 0.8-1.3 1.1-1.9 0.7-1.1 1.5-2.4 2.4-3.8 7.3-12 18.9-31.3 21.2-35 0.6-1.1 1.3-2.1 2-3.2v-36.5c0-3.5-0.7-6.9-2-10-1.4-3.2-3.3-6-5.8-8.4l-96.7-93c-2.4-2.3-5.2-4.1-8.2-5.3-3.1-1.2-6.3-1.9-9.6-1.9h-185.7c-31.3 0-56.7 25.4-56.7 56.7v345c0 31.3 25.4 56.7 56.7 56.7h251.4c31.3 0 56.7-25.4 56.7-56.7v-66.2c-8.6 11.6-17.5 23.1-26.7 34.3v31.7h-0.1z"/>
	<path d="m94 101.7c-12.1 4.6-19.5 13-20.1 26.3-0.5 11.7 5.7 19.6 15.4 25.2 6 3.5 12.6 5.5 18.9 8.2 2.5 1 4.8 2.3 6.9 3.9 6.1 4.9 5.1 13.2-2 16.5-3.8 1.7-7.9 2.2-12 1.8-6.4-0.7-12.6-2.3-18.5-5.2-3.4-1.7-4.4-1.2-5.5 2.5-0.9 3.2-1.8 6.4-2.6 9.6-1.1 4.3-0.7 5.4 3.5 7.3 5.3 2.5 10.9 3.7 16.6 4.5 4.5 0.6 4.6 0.8 4.8 5.5 0.1 2.1 0.1 4.2 0.2 6.3 0.1 2.7 1.4 4.2 4.1 4.2 3.1 0 6.2 0 9.3-0.2 2.5-0.1 3.8-1.5 3.8-4.1 0-2.9 0.1-5.8-0.1-8.6-0.2-2.9 1.1-4.4 3.9-5.2 6.5-1.9 11.9-5.4 16.1-10.7 11.6-14.5 6.8-35.5-10.1-44.5-5.3-2.8-10.9-4.9-16.5-7.2-3.2-1.3-6.3-2.8-9-4.9-5.4-4.2-4.5-11.1 1.7-13.9 1.7-0.8 3.6-1.1 5.5-1.2 7.2-0.5 14.1 0.7 20.7 3.8 3.3 1.5 4.4 1 5.4-2.4 1.1-3.6 2-7.3 3-10.9 0.7-2.4-0.2-4-2.5-5-4.2-1.8-8.6-3.1-13.1-3.7-5.9-0.8-5.9-0.9-6-6.8-0.2-8.4-0.2-8.4-8.5-8.3-1.2 0-2.4 0-3.7 0.1-3.9 0.2-4.6 0.9-4.6 4.8 0 1.8 0 3.5 0.1 5.3-0.1 5.2-0.1 5.1-5.1 7z"/>
	<path d="m283.3 314.2c2.3-4.8 4.7-9.6 7.1-14.4h-220.5c-7.3 0-13.4 6-13.4 13.4 0 7.3 6 13.4 13.4 13.4h207.6c1.8-4.1 3.8-8.2 5.8-12.4z"/>
	<path d="m56.5 366.5c0 7.3 6 13.4 13.4 13.4h186.2c2.9-9 6.1-17.8 9.7-26.7h-195.9c-7.4 0-13.4 6-13.4 13.3z"/>
	<path d="m481.4 166.7l-7.6-4.4-12.3-7.1c2-4.6 3.8-9.3 5.2-14.1 0.4-1.6 0.9-3.1 1.2-4.7 2.2-10.9-1.6-18.4-12.5-24.9-9.4-5.6-16.8-5-25.3 2-5.8 4.8-10.5 10.6-14.9 16.6-16 21.8-29.6 45.2-43.8 68.1l-17.2 28.6c-18.6 31.5-36.1 63.6-52 96.6-10.5 21.7-20.4 43.7-27.4 66.9-0.7 3.2-1.6 6.5-1.9 9.8-0.4 3.8-1.8 8.5 2.3 10.9 4 2.3 7.5-0.9 10.7-3.2 8.6-6.2 15.8-13.9 22.7-21.8 33.7-38.5 62.4-80.5 90-123.5l21.7-34.8c9.3-15.9 19-31.5 28.2-47.4 1.7-3 3.5-6.1 5.2-9.1l11.4 6.6-55.6 95.7c-4.2 7.3-0.5 17 8.5 19.1 0.8 0.2 1.7-0.2 2.1-0.9l64.9-111.8c2.5-4.7 1-10.5-3.6-13.2z"/>
</svg>
