<?xml version="1.0" encoding="UTF-8"?>
<!DOCTYPE svg  PUBLIC '-//W3C//DTD SVG 1.1//EN'  'http://www.w3.org/Graphics/SVG/1.1/DTD/svg11.dtd'>
<svg enable-background="new 0 0 511.626 511.627" version="1.1" viewBox="0 0 511.626 511.627" xml:space="preserve" xmlns="http://www.w3.org/2000/svg">
	<path d="m491.36 211.27c-13.511-31.599-31.689-58.813-54.529-81.658-22.839-22.841-50.059-41.017-81.659-54.53-31.601-13.513-64.713-20.271-99.359-20.271-34.644 0-67.762 6.759-99.357 20.271-31.595 13.518-58.813 31.689-81.653 54.53-22.845 22.845-41.018 50.059-54.534 81.658-13.513 31.599-20.27 64.714-20.27 99.357 0 49.865 13.418 95.838 40.256 137.9 3.614 5.52 8.754 8.278 15.417 8.278h400.28c6.66 0 11.8-2.759 15.414-8.278 26.84-42.254 40.258-88.224 40.258-137.9 0-34.643-6.754-67.758-20.265-99.357zm-261.39-109.2c7.142-7.139 15.752-10.709 25.84-10.709 10.089 0 18.699 3.571 25.838 10.709 7.139 7.135 10.711 15.749 10.711 25.837s-3.572 18.699-10.711 25.837-15.749 10.709-25.838 10.709c-10.088 0-18.702-3.571-25.84-10.709-7.135-7.139-10.707-15.749-10.707-25.837s3.568-18.701 10.707-25.837zm-131.04 234.4c-7.138 7.135-15.752 10.715-25.84 10.715-10.085 0-18.699-3.58-25.837-10.715-7.139-7.132-10.705-15.749-10.705-25.838 0-10.088 3.566-18.698 10.705-25.837s15.752-10.708 25.837-10.708c10.088 0 18.706 3.569 25.84 10.708 7.135 7.139 10.707 15.749 10.707 25.837 0 10.089-3.572 18.699-10.707 25.838zm54.819-127.91c-7.142 7.137-15.752 10.709-25.841 10.709s-18.702-3.576-25.841-10.709c-7.135-7.135-10.706-15.749-10.706-25.837s3.567-18.699 10.706-25.837c7.142-7.139 15.752-10.709 25.841-10.709 10.088 0 18.702 3.571 25.841 10.709 7.135 7.139 10.706 15.749 10.706 25.837 0 10.085-3.572 18.698-10.706 25.837zm161.73 2.428l-28.839 109.06c9.524 6.468 16.376 15.126 20.564 25.98 4.182 10.849 4.757 21.984 1.711 33.404-3.806 14.657-12.278 25.793-25.413 33.403-13.135 7.614-27.026 9.521-41.686 5.712-14.653-3.806-25.791-12.275-33.402-25.41-7.611-13.138-9.514-27.027-5.708-41.688 3.044-11.416 9.04-20.79 17.987-28.113 8.944-7.333 19.126-11.468 30.546-12.422l28.837-109.06c1.331-4.948 4.186-8.711 8.562-11.281 4.381-2.565 8.945-3.184 13.706-1.853 4.764 1.334 8.425 4.139 10.991 8.42 2.576 4.287 3.287 8.902 2.144 13.85zm42.4-2.428c-7.139-7.135-10.711-15.749-10.711-25.837s3.572-18.699 10.711-25.837 15.749-10.709 25.838-10.709c10.088 0 18.698 3.571 25.837 10.709s10.712 15.749 10.712 25.837c0 10.085-3.573 18.699-10.712 25.837-7.139 7.137-15.749 10.709-25.837 10.709-10.089 0-18.699-3.572-25.838-10.709zm106.49 127.91c-7.139 7.135-15.749 10.715-25.837 10.715-10.089 0-18.699-3.58-25.838-10.715-7.139-7.132-10.708-15.749-10.708-25.838 0-10.088 3.569-18.698 10.708-25.837s15.749-10.708 25.838-10.708c10.088 0 18.698 3.569 25.837 10.708s10.704 15.749 10.704 25.837c0 10.089-3.566 18.699-10.704 25.838z"/>
</svg>
