<?xml version="1.0" encoding="UTF-8"?>
<svg enable-background="new 0 0 512 512" version="1.1" viewBox="0 0 512 512" xml:space="preserve" xmlns="http://www.w3.org/2000/svg">
		<path d="m422.72 42.667h-60.053v-10.176c0-17.92-14.571-32.491-32.47-32.491h-148.39c-17.899 0-32.469 14.571-32.469 32.491v10.176h-60.054c-25.707 0-46.613 20.907-46.613 46.613v376.11c0 25.706 20.906 46.613 46.613 46.613h333.44c25.707 0 46.613-20.907 46.613-46.613v-376.11c0-25.707-20.906-46.613-46.613-46.613zm-230.72 0h128v42.667h-128v-42.667zm21.333 384h-85.333v-85.333h85.333v85.333zm0-149.33h-85.333v-85.333h85.333v85.333zm164.42 79.083l-64 64c-4.16 4.16-9.621 6.251-15.083 6.251-5.461 0-10.923-2.091-15.083-6.251l-21.333-21.333c-8.341-8.341-8.341-21.824 0-30.165s21.824-8.341 30.165 0l6.251 6.251 48.917-48.917c8.341-8.341 21.824-8.341 30.165 0s8.343 21.823 1e-3 30.164zm0-149.33l-64 64c-4.16 4.16-9.621 6.251-15.083 6.251-5.461 0-10.923-2.091-15.083-6.251l-21.333-21.333c-8.341-8.341-8.341-21.824 0-30.165s21.824-8.341 30.165 0l6.251 6.251 48.917-48.917c8.341-8.341 21.824-8.341 30.165 0 8.343 8.34 8.343 21.822 1e-3 30.164z"/>
</svg>
