<?xml version="1.0" encoding="iso-8859-1"?>
<!-- Generator: Adobe Illustrator 19.0.0, SVG Export Plug-In . SVG Version: 6.00 Build 0)  -->
<svg version="1.1" id="Layer_1" xmlns="http://www.w3.org/2000/svg" xmlns:xlink="http://www.w3.org/1999/xlink" x="0px" y="0px"
	 viewBox="0 0 512 512" style="enable-background:new 0 0 512 512;" xml:space="preserve">
	 <!-- <style type="text/css">
	 path{fill:#428BCA;}
	 </style> -->
<g>
	<g>
		<path d="M322.783,367.304c-9.206,0-16.696,7.49-16.696,16.696s7.49,16.696,16.696,16.696c9.206,0,16.696-7.49,16.696-16.696
			S331.989,367.304,322.783,367.304z"/>
	</g>
</g>
<g>
	<g>
		<path d="M189.217,233.739c-9.206,0-16.696,7.49-16.696,16.696c0,9.206,7.49,16.696,16.696,16.696s16.696-7.49,16.696-16.696
			C205.913,241.229,198.423,233.739,189.217,233.739z"/>
	</g>
</g>
<g>
	<g>
		<path d="M456.348,0H55.652c-9.217,0-16.696,7.473-16.696,16.696v478.609c0,5.788,3,11.157,7.913,14.201
			c4.935,3.043,11.065,3.31,16.25,0.733l59.315-29.658l59.315,29.658c4.696,2.347,10.239,2.347,14.935,0L256,480.581l59.315,29.658
			c2.347,1.174,4.913,1.761,7.467,1.761s5.12-0.587,7.467-1.761l59.315-29.658l59.315,29.658c5.185,2.581,11.315,2.31,16.25-0.733
			c4.913-3.044,7.913-8.414,7.913-14.201V16.696C473.043,7.473,465.565,0,456.348,0z M122.435,66.783
			c9.22,0,16.696,7.475,16.696,16.696s-7.475,16.696-16.696,16.696c-9.22,0-16.696-7.475-16.696-16.696
			S113.214,66.783,122.435,66.783z M122.435,166.957c-9.22,0-16.696-7.475-16.696-16.696s7.475-16.696,16.696-16.696
			c9.22,0,16.696,7.475,16.696,16.696S131.655,166.957,122.435,166.957z M139.13,250.435c0-27.619,22.468-50.087,50.087-50.087
			c27.619,0,50.087,22.468,50.087,50.087c0,27.619-22.468,50.087-50.087,50.087C161.598,300.522,139.13,278.054,139.13,250.435z
			 M196.968,399.863c-3.261,3.262-7.533,4.892-11.805,4.892s-8.544-1.631-11.804-4.892c-6.521-6.516-6.521-17.087,0-23.609
			l141.663-141.668c6.521-6.521,17.087-6.521,23.609,0c6.521,6.516,6.521,17.087,0,23.609L196.968,399.863z M322.783,434.087
			c-27.619,0-50.087-22.468-50.087-50.087s22.468-50.087,50.087-50.087c27.619,0,50.087,22.468,50.087,50.087
			S350.402,434.087,322.783,434.087z M389.565,166.957H189.217c-9.217,0-16.696-7.473-16.696-16.696s7.479-16.696,16.696-16.696
			h200.348c9.217,0,16.696,7.473,16.696,16.696C406.261,159.484,398.782,166.957,389.565,166.957z M389.565,100.174H189.217
			c-9.217,0-16.696-7.473-16.696-16.696S180,66.783,189.217,66.783h200.348c9.217,0,16.696,7.473,16.696,16.696
			S398.782,100.174,389.565,100.174z"/>
	</g>
</g>
<g>
</g>
<g>
</g>
<g>
</g>
<g>
</g>
<g>
</g>
<g>
</g>
<g>
</g>
<g>
</g>
<g>
</g>
<g>
</g>
<g>
</g>
<g>
</g>
<g>
</g>
<g>
</g>
<g>
</g>
</svg>
