<?xml version="1.0" encoding="UTF-8"?>
<svg enable-background="new 0 0 512 512" version="1.1" viewBox="0 0 512 512" xml:space="preserve" xmlns="http://www.w3.org/2000/svg">
	<path d="m322.78 367.3c-9.206 0-16.696 7.49-16.696 16.696s7.49 16.696 16.696 16.696 16.696-7.49 16.696-16.696-7.49-16.696-16.696-16.696z"/>
	<path d="m189.22 233.74c-9.206 0-16.696 7.49-16.696 16.696s7.49 16.696 16.696 16.696 16.696-7.49 16.696-16.696-7.49-16.696-16.696-16.696z"/>
	<path d="m456.35 0h-400.7c-9.217 0-16.696 7.473-16.696 16.696v478.61c0 5.788 3 11.157 7.913 14.201 4.935 3.043 11.065 3.31 16.25 0.733l59.315-29.658 59.315 29.658c4.696 2.347 10.239 2.347 14.935 0l59.316-29.658 59.315 29.658c2.347 1.174 4.913 1.761 7.467 1.761s5.12-0.587 7.467-1.761l59.315-29.658 59.315 29.658c5.185 2.581 11.315 2.31 16.25-0.733 4.913-3.044 7.913-8.414 7.913-14.201v-478.61c1e-3 -9.223-7.477-16.696-16.694-16.696zm-333.91 66.783c9.22 0 16.696 7.475 16.696 16.696s-7.475 16.696-16.696 16.696c-9.22 0-16.696-7.475-16.696-16.696s7.475-16.696 16.696-16.696zm0 100.17c-9.22 0-16.696-7.475-16.696-16.696s7.475-16.696 16.696-16.696c9.22 0 16.696 7.475 16.696 16.696s-7.476 16.696-16.696 16.696zm16.695 83.478c0-27.619 22.468-50.087 50.087-50.087s50.087 22.468 50.087 50.087-22.468 50.087-50.087 50.087-50.087-22.468-50.087-50.087zm57.838 149.43c-3.261 3.262-7.533 4.892-11.805 4.892s-8.544-1.631-11.804-4.892c-6.521-6.516-6.521-17.087 0-23.609l141.66-141.67c6.521-6.521 17.087-6.521 23.609 0 6.521 6.516 6.521 17.087 0 23.609l-141.66 141.67zm125.82 34.224c-27.619 0-50.087-22.468-50.087-50.087s22.468-50.087 50.087-50.087 50.087 22.468 50.087 50.087-22.468 50.087-50.087 50.087zm66.782-267.13h-200.35c-9.217 0-16.696-7.473-16.696-16.696s7.479-16.696 16.696-16.696h200.35c9.217 0 16.696 7.473 16.696 16.696s-7.479 16.696-16.696 16.696zm0-66.783h-200.35c-9.217 0-16.696-7.473-16.696-16.696s7.479-16.695 16.696-16.695h200.35c9.217 0 16.696 7.473 16.696 16.696s-7.479 16.695-16.696 16.695z"/>
</svg>
