<?xml version="1.0" encoding="iso-8859-1"?>
<!-- Generator: Adobe Illustrator 19.0.0, SVG Export Plug-In . SVG Version: 6.00 Build 0)  -->
<svg version="1.1" id="Capa_1" xmlns="http://www.w3.org/2000/svg" xmlns:xlink="http://www.w3.org/1999/xlink" x="0px" y="0px"
	 viewBox="0 0 429.3 429.3" style="enable-background:new 0 0 429.3 429.3;" xml:space="preserve">
	 <!-- <style type="text/css">
	 path{fill:#428BCA;}
	 </style> -->
<g>
	<g>
		<path d="M336.45,23.3c-1.8,2.1-4.4,3.3-7.2,3.3s-5.5-1.2-7.4-3.3L300.55,0l-21.3,23.2c-0.2,0.2-0.4,0.4-0.6,0.6
			c-4,3.7-10.4,3.5-14.1-0.6L243.25,0l-21.3,23.2c-0.2,0.2-0.4,0.4-0.6,0.6c-4,3.7-10.4,3.5-14.1-0.6L185.95,0l-21.3,23.2
			c-0.2,0.2-0.4,0.4-0.6,0.6c-4,3.7-10.4,3.5-14.1-0.6L128.65,0l-21.3,23.3c-1.9,2.1-4.6,3.3-7.4,3.3s-5.4-1.2-7.2-3.3L81.65,11
			v407.4l11.1-12.4c1.8-2.1,4.4-3.3,7.2-3.3c2.8,0,5.5,1.2,7.4,3.3l21.3,23.3l21.4-23.2c0.2-0.2,0.4-0.4,0.6-0.6
			c4-3.7,10.4-3.5,14.1,0.6l21.3,23.2l21.3-23.2c0.2-0.2,0.4-0.4,0.6-0.6c4-3.7,10.4-3.5,14.1,0.6l21.3,23.2l21.3-23.2
			c0.2-0.2,0.4-0.4,0.6-0.6c4-3.7,10.4-3.5,14.1,0.6l21.3,23.2l21.3-23.3c1.9-2.1,4.6-3.3,7.4-3.3s5.4,1.2,7.2,3.3l11.1,12.3V10.9
			L336.45,23.3z M204.55,80.3V74c0-5.5,4.5-10,10-10s10,4.5,10,10v6.3c13.5,4.3,22.6,16.9,22.6,31c0,5.5-4.5,10-10,10s-10-4.5-10-10
			c0-0.1,0-0.1,0-0.1c0-7-5.7-12.7-12.6-12.6c-6.9,0.1-12.5,5.6-12.5,12.6s5.6,12.6,12.6,12.6c14.1,0,26.7,9.1,31,22.6
			c5.5,17.1-3.9,35.5-21,41v6.4c0,5.5-4.5,10-10,10s-10-4.5-10-10v-6.4c-13.5-4.4-22.6-16.9-22.6-31c0-5.5,4.5-10,10-10
			s10,4.5,10,10c0,7,5.7,12.6,12.6,12.6c0.1,0,0.1,0,0.1,0.1c7-0.1,12.6-5.7,12.5-12.7c-0.1-7-5.8-12.6-12.7-12.5
			c-14.1,0-26.7-9.2-31-22.6C178.05,104.2,187.45,85.8,204.55,80.3z M170.85,258.7h87.6c5.5,0,10,4.5,10,10s-4.5,10-10,10h-87.6
			c-5.5,0-10-4.5-10-10S165.35,258.7,170.85,258.7z M300.15,361.7h-171c-5.5,0-10-4.5-10-10s4.5-10,10-10h171c5.5,0,10,4.5,10,10
			S305.65,361.7,300.15,361.7z M300.15,319.7h-171c-5.5,0-10-4.5-10-10s4.5-10,10-10h171c5.5,0,10,4.5,10,10
			S305.65,319.7,300.15,319.7z"/>
	</g>
</g>
<g>
	<g>
		<path d="M347.65,418.3L347.65,418.3L347.65,418.3z"/>
	</g>
</g>
<g>
</g>
<g>
</g>
<g>
</g>
<g>
</g>
<g>
</g>
<g>
</g>
<g>
</g>
<g>
</g>
<g>
</g>
<g>
</g>
<g>
</g>
<g>
</g>
<g>
</g>
<g>
</g>
<g>
</g>
</svg>
