<?xml version="1.0" encoding="UTF-8"?>
<svg enable-background="new 0 0 429.3 429.3" version="1.1" viewBox="0 0 429.3 429.3" xml:space="preserve" xmlns="http://www.w3.org/2000/svg">
	<path d="m336.45 23.3c-1.8 2.1-4.4 3.3-7.2 3.3s-5.5-1.2-7.4-3.3l-21.3-23.3-21.3 23.2-0.6 0.6c-4 3.7-10.4 3.5-14.1-0.6l-21.3-23.2-21.3 23.2-0.6 0.6c-4 3.7-10.4 3.5-14.1-0.6l-21.3-23.2-21.3 23.2-0.6 0.6c-4 3.7-10.4 3.5-14.1-0.6l-21.3-23.2-21.3 23.3c-1.9 2.1-4.6 3.3-7.4 3.3s-5.4-1.2-7.2-3.3l-11.1-12.3v407.4l11.1-12.4c1.8-2.1 4.4-3.3 7.2-3.3s5.5 1.2 7.4 3.3l21.3 23.3 21.4-23.2 0.6-0.6c4-3.7 10.4-3.5 14.1 0.6l21.3 23.2 21.3-23.2 0.6-0.6c4-3.7 10.4-3.5 14.1 0.6l21.3 23.2 21.3-23.2 0.6-0.6c4-3.7 10.4-3.5 14.1 0.6l21.3 23.2 21.3-23.3c1.9-2.1 4.6-3.3 7.4-3.3s5.4 1.2 7.2 3.3l11.1 12.3v-407.4l-11.2 12.4zm-131.9 57v-6.3c0-5.5 4.5-10 10-10s10 4.5 10 10v6.3c13.5 4.3 22.6 16.9 22.6 31 0 5.5-4.5 10-10 10s-10-4.5-10-10v-0.1c0-7-5.7-12.7-12.6-12.6s-12.5 5.6-12.5 12.6 5.6 12.6 12.6 12.6c14.1 0 26.7 9.1 31 22.6 5.5 17.1-3.9 35.5-21 41v6.4c0 5.5-4.5 10-10 10s-10-4.5-10-10v-6.4c-13.5-4.4-22.6-16.9-22.6-31 0-5.5 4.5-10 10-10s10 4.5 10 10c0 7 5.7 12.6 12.6 12.6 0.1 0 0.1 0 0.1 0.1 7-0.1 12.6-5.7 12.5-12.7s-5.8-12.6-12.7-12.5c-14.1 0-26.7-9.2-31-22.6-5.5-17.1 3.9-35.5 21-41zm-33.7 178.4h87.6c5.5 0 10 4.5 10 10s-4.5 10-10 10h-87.6c-5.5 0-10-4.5-10-10s4.5-10 10-10zm129.3 103h-171c-5.5 0-10-4.5-10-10s4.5-10 10-10h171c5.5 0 10 4.5 10 10s-4.5 10-10 10zm0-42h-171c-5.5 0-10-4.5-10-10s4.5-10 10-10h171c5.5 0 10 4.5 10 10s-4.5 10-10 10z"/>
	<path d="m347.65 418.3z"/>
</svg>
