<?xml version="1.0" encoding="UTF-8"?>
<!DOCTYPE svg  PUBLIC '-//W3C//DTD SVG 1.1//EN'  'http://www.w3.org/Graphics/SVG/1.1/DTD/svg11.dtd'>
<svg enable-background="new 0 0 297 297" version="1.1" viewBox="0 0 297 297" xml:space="preserve" xmlns="http://www.w3.org/2000/svg">
	<polygon points="96.034 290.88 96.034 235.48 40.63 235.48"/>
	<path d="m252.04 0h-207.07c-5.775 0-10.459 4.684-10.459 10.459v204.1h71.986c5.775 0 10.457 4.682 10.457 10.458v71.981h135.09c5.773 0 10.457-4.682 10.457-10.458v-276.08c0-5.775-4.684-10.459-10.457-10.459zm-172.56 51.764h86.279c5.773 0 10.463 4.688 10.463 10.457 0 5.777-4.689 10.465-10.463 10.465h-86.279c-5.777 0-10.457-4.688-10.457-10.465 0-5.769 4.679-10.457 10.457-10.457zm0 51.77h86.279c5.773 0 10.463 4.681 10.463 10.455 0 5.776-4.689 10.457-10.463 10.457h-86.279c-5.777 0-10.457-4.681-10.457-10.457 0-5.774 4.679-10.455 10.457-10.455zm0 72.681c-5.777 0-10.457-4.688-10.457-10.457 0-5.773 4.68-10.461 10.457-10.461h86.279c5.773 0 10.463 4.688 10.463 10.461 0 5.77-4.689 10.457-10.463 10.457h-86.279zm138.05 51.764h-34.51c-5.777 0-10.459-4.681-10.459-10.457 0-5.775 4.682-10.457 10.459-10.457h34.51c5.777 0 10.459 4.682 10.459 10.457 0 5.776-4.681 10.457-10.459 10.457zm0-51.764h-17.26c-5.768 0-10.459-4.688-10.459-10.457 0-5.773 4.691-10.461 10.459-10.461h17.26c5.777 0 10.459 4.688 10.459 10.461 0 5.769-4.681 10.457-10.459 10.457zm0-51.769h-17.26c-5.768 0-10.459-4.681-10.459-10.457 0-5.775 4.691-10.455 10.459-10.455h17.26c5.777 0 10.459 4.681 10.459 10.455 0 5.777-4.681 10.457-10.459 10.457zm0-51.76h-17.26c-5.768 0-10.459-4.688-10.459-10.465 0-5.769 4.691-10.457 10.459-10.457h17.26c5.777 0 10.459 4.688 10.459 10.457 0 5.777-4.681 10.465-10.459 10.465z"/>
</svg>
