<?xml version="1.0" encoding="utf-8"?>
<!-- Generator: Adobe Illustrator 21.1.0, SVG Export Plug-In . SVG Version: 6.00 Build 0)  -->
<svg version="1.1" id="Layer_1" xmlns="http://www.w3.org/2000/svg" xmlns:xlink="http://www.w3.org/1999/xlink" x="0px" y="0px"
	 viewBox="0 0 591 184.2" style="enable-background:new 0 0 591 184.2;" xml:space="preserve">
<style type="text/css">
	.st0{fill:#FE5A5E;}
</style>
<path class="st0" d="M176.7,142.8c0.3,17.8-12.9,33.7-30.8,36.8c-10,1.7-19.2-0.4-28-5.1c-8.6-4.6-15.6-11-22.1-18
	c-0.8-0.8-1.2-0.8-2,0c-5.9,6.4-12.3,12.2-19.8,16.7c-6,3.6-12.4,6.1-19.3,6.7c-12.5,1.2-23.3-2.6-31.9-11.8
	c-5.5-5.8-8.7-12.9-9.7-20.8c-1-7.6,0.5-14.9,3.7-21.8c4.7-10.5,9.4-20.9,14.4-31.2C38.9,78.1,46.8,62,54.8,46
	c4.3-8.7,8.8-17.2,13.5-25.7c3.6-6.6,8.9-11.6,16.1-14.4c11.6-4.4,24.9-1,32.9,8.6c3.5,4.2,6,9,8.5,13.9c7.1,14,14.4,28,21.2,42.2
	c8.7,18.1,17.2,36.3,25.7,54.5c2.1,4.5,3.4,9.3,4,14.2C176.8,140.5,176.7,141.7,176.7,142.8z M23.6,142.8c0.2,1.9,0.3,3.7,0.7,5.6
	c2.5,11.3,11.9,19.9,24.2,20.8c6.2,0.5,12-1.2,17.5-4.1c8.2-4.3,14.7-10.5,20.9-17.3c0.5-0.6,0.5-1,0-1.5c-0.8-1-1.6-2-2.4-3
	c-6.3-8.3-11.9-16.9-15.7-26.7c-2.9-7.5-4.6-15.2-3.5-23.3c1.1-8,4.8-14.5,11.3-19.2c7-5.1,15-6.7,23.5-5.3c7,1.1,13,4.2,17.6,9.7
	c6.6,7.7,7.9,16.8,6.3,26.6c-1.3,8.2-4.6,15.6-8.7,22.7c-3.7,6.5-8,12.5-12.6,18.4c-0.4,0.5-0.8,0.9-0.1,1.6
	c5.7,6.2,11.8,12.1,19.2,16.4c7,4,14.5,6.1,22.6,4.6c12.1-2.3,21.1-12.7,21.5-25.5c0.1-5.1-1.3-9.9-3.5-14.4
	c-9.9-21.1-19.8-42.1-29.9-63.1c-5.2-10.7-10.7-21.3-16.2-31.9c-2.1-4.1-4.4-8.2-7.1-11.9c-6-7.9-17.2-9.3-25.2-3.4
	c-3.4,2.4-5.6,5.8-7.5,9.4C72.2,36,68,44,63.9,52.2C56.6,66.7,49.4,81.3,42.4,96c-5.3,10.9-10.3,22-15.3,33.1
	C25.1,133.4,23.6,137.9,23.6,142.8z M94.8,138.5c0.3-0.4,0.5-0.6,0.6-0.7c4.6-5.9,8.8-12.1,12.2-18.8c3.6-7.1,6.4-14.4,6-22.5
	c-0.2-4.3-1.6-8.2-4.7-11.4c-5-5-11.1-6.5-17.9-5.4c-8.4,1.4-14.7,7.7-15.1,17.5c-0.2,5.5,1.2,10.6,3.2,15.6
	c3.2,8.1,7.9,15.3,13,22.3C92.9,136.2,93.8,137.3,94.8,138.5z"/>
<path class="st0" d="M526.9,129.9c0,1,0,1.9,0,2.8c0,1.4-0.8,2.2-2.2,2.3c-4.4,0-8.9,0-13.3,0c-0.8,0-1.1-0.3-1-1.1
	c0-0.2,0-0.5,0-0.7c0-31.5,0-63.1,0-94.6c0-1.8,0-1.8,1.7-1.8c4.4,0,8.8,0,13.2,0c1.7,0,1.7,0,1.7,1.6c0,11.3,0,22.6,0,33.9
	c0,0.5,0,1,0,1.9c0.6-0.4,0.9-0.6,1.1-0.9c3.6-3.4,7.8-5.3,12.7-5.9c13.8-1.6,27.4,5.2,33.8,17.9c2.8,5.6,4,11.6,3.8,17.8
	c-0.3,9.4-3.5,17.5-10.3,24.2c-5.2,5.1-11.5,8-18.7,9c-5.3,0.8-10.6,0.5-15.4-1.9c-2.1-1.1-3.9-2.7-5.9-4c-0.2-0.2-0.4-0.4-0.6-0.5
	C527.3,129.9,527.2,129.9,526.9,129.9z M526.9,101.8c0,3,0.2,6-0.1,9c-0.2,2.7,0.9,4.4,2.8,5.9c0.3,0.3,0.7,0.5,1,0.8
	c6.4,4.9,16.3,4.4,22.6,0.4c3.6-2.3,6.1-5.4,7.3-9.4c1.3-4,1.4-8.1,0.3-12.2c-1.3-4.8-4-8.5-8.3-10.9c-2.5-1.4-5.3-2.2-8.2-2.6
	c-6.7-0.8-12.3,1.3-16.9,6.3c-0.4,0.5-0.7,1.3-0.7,1.9C526.8,94.6,526.9,98.2,526.9,101.8z"/>
<path class="st0" d="M382.1,74.2c0.5-0.4,0.8-0.6,1-0.8c4.3-4.1,9.5-6,15.4-6.2c9.3-0.2,17.5,2.7,24.4,9.1c5.5,5.2,8.8,11.7,10,19.1
	c1.4,8,0.5,15.8-3.3,23.1c-5.3,10.3-13.8,16.2-25.2,17.9c-6.1,0.9-11.9,0.3-17.2-2.9c-1.3-0.8-2.5-1.9-3.7-2.8
	c-0.4-0.3-0.7-0.6-1-0.9c-0.1,0-0.2,0.1-0.3,0.1c0,0.7,0,1.3,0,2c0,2.4-0.7,3.1-3,3.1c-4,0-8,0-12,0c-1.6,0-1.6,0-1.6-1.6
	c0-31.7,0-63.4,0-95c0-0.2,0-0.4,0-0.6c-0.1-0.7,0.3-1,1-1c4.9,0,9.8,0,14.6,0c1.1,0,1,0.7,1,1.4c0,8.2,0,16.3,0,24.5
	c0,3.3,0,6.6,0,10C382.1,73,382.1,73.4,382.1,74.2z M382.1,101.8c0,3.1,0.2,6.2-0.1,9.2c-0.2,2.5,0.8,4.1,2.6,5.5
	c0.4,0.3,0.9,0.7,1.3,1c4.7,3.4,9.9,4,15.4,3c4.9-0.9,9-3.2,12-7.3c2.9-4,3.8-8.6,3.4-13.5c-0.4-4.5-2-8.4-5.2-11.7
	c-3.3-3.3-7.3-4.8-11.9-5.4c-6.6-0.8-12.2,1.3-16.7,6.2c-0.5,0.5-0.7,1.3-0.8,2C382.1,94.6,382.1,98.2,382.1,101.8z"/>
<path class="st0" d="M263.4,129.9c-0.2,0.2-0.5,0.4-0.7,0.6c-3.9,3.8-8.7,5.8-14.2,6.2c-17.3,1.2-31.4-10-35-25.3
	c-3.1-13.1-0.5-25,9.2-34.8c5.3-5.4,12-8.2,19.5-9.1c5-0.6,9.9-0.3,14.4,1.9c2.1,1,3.9,2.6,5.9,3.9c0.3,0.2,0.6,0.5,0.9,0.8
	c0.1,0,0.2-0.1,0.4-0.1c0-0.8,0-1.6,0-2.4c0-1.7,0.8-2.6,2.6-2.6c4.2,0,8.5,0,12.7,0c1,0,1.3,0.2,1.3,1.3c0,21.2,0,42.4,0,63.6
	c0,0.9-0.3,1.3-1.2,1.3c-4.3,0-8.6,0-12.8,0c-1.7,0-2.5-0.8-2.5-2.6c0-0.8,0-1.6,0-2.4C263.7,130,263.6,129.9,263.4,129.9z
	 M263.8,101.9c0-3.1-0.2-6.2,0.1-9.3c0.2-2.3-0.8-3.9-2.5-5.2c-0.2-0.1-0.4-0.3-0.6-0.5c-4.7-3.7-9.9-5-15.8-3.9
	c-5.1,0.9-9.5,3.1-12.5,7.4c-3,4.3-3.9,9.1-3.3,14.2c0.7,5.5,3.1,9.9,7.7,13c4,2.7,8.4,3.6,13.1,3.4c5.2-0.2,9.6-2.3,12.9-6.3
	c0.5-0.5,0.7-1.4,0.7-2.2C263.8,109,263.8,105.4,263.8,101.9z"/>
<path class="st0" d="M456.7,74c0.3-0.2,0.6-0.4,0.8-0.6c3.8-3.5,8.3-5.4,13.5-5.9c8.4-0.9,15.9,0.9,22.5,6.4
	c4.2,3.6,6.5,8.2,7.2,13.5c0.3,2.5,0.5,5.1,0.5,7.6c0.1,12.8,0,25.5,0,38.3c0,1.7,0,1.7-1.7,1.7c-4.5,0-9,0-13.6,0
	c-1.1,0-1.4-0.3-1.3-1.4c0-12.5,0.1-25,0-37.5c0-2.3-0.4-4.6-1-6.8c-1.2-4-4.1-6.1-8.2-6.8c-6.4-1.1-11.9,0.7-16.6,5.1
	c-0.9,0.8-1.3,1.7-1.3,2.9c0,14.3,0,28.6,0.1,42.9c0,1.2-0.3,1.6-1.5,1.6c-4.6-0.1-9.1-0.1-13.7,0c-1,0-1.5-0.2-1.5-1.4
	c0-21.1,0-42.2,0-63.3c0-1,0.3-1.4,1.3-1.4c3.9,0.1,7.8,0,11.6,0c1.7,0,2.5,0.8,2.5,2.5c0,0.8,0,1.6,0,2.5
	C456.4,73.9,456.6,74,456.7,74z"/>
<path class="st0" d="M335.5,74c0.6-0.6,1.2-1.1,1.8-1.7c5.2-4.1,11-5.8,17.6-4.9c3.2,0.4,3.2,0.4,3.2,3.7c0,3.6,0,7.1,0,10.7
	c0,1-0.1,1.3-1.3,1.1c-5.5-1.2-10.9-1.1-16,1.4c-0.6,0.3-1.3,0.7-1.9,1.1c-2.7,1.6-4,3.6-4,7c0.3,13.6,0.1,27.3,0.1,40.9
	c0,1.6,0,1.6-1.6,1.6c-4.5,0-9,0-13.6,0c-1.1,0-1.5-0.3-1.5-1.5c0-21.1,0-42.1,0-63.2c0-1.1,0.3-1.5,1.4-1.4c4.2,0.1,8.5,0,12.7,0
	c1.7,0,2.5,0.8,2.5,2.5c0,0.8,0,1.6,0,2.5C335.2,73.9,335.4,73.9,335.5,74z"/>
<path class="st0" d="M291.1,101.9c0-10.5,0-21,0-31.5c0-1.1,0.3-1.5,1.5-1.5c4.6,0.1,9.2,0.1,13.8,0c1,0,1.4,0.3,1.4,1.3
	c0,21.1,0,42.3,0,63.4c0,1-0.3,1.3-1.3,1.3c-4.7,0-9.4-0.1-14,0c-1.1,0-1.3-0.4-1.3-1.4C291.2,123,291.1,112.5,291.1,101.9z"/>
<path class="st0" d="M299.5,59.3c-6.2,0-11.3-5.1-11.2-11.3c0.1-5.9,4.4-11.2,11.3-11.2c6.8,0,11.2,5.3,11.3,11.3
	C310.9,54.3,305.8,59.3,299.5,59.3z"/>
</svg>
