<?xml version="1.0" encoding="utf-8"?>
<!-- Generator: Adobe Illustrator 21.1.0, SVG Export Plug-In . SVG Version: 6.00 Build 0)  -->
<svg version="1.1" id="Layer_1" xmlns="http://www.w3.org/2000/svg" xmlns:xlink="http://www.w3.org/1999/xlink" x="0px" y="0px"
	 viewBox="0 0 178.4 191.8" style="enable-background:new 0 0 178.4 191.8;" xml:space="preserve">
<style type="text/css">
	.st0{fill:#FE5A5E;}
</style>
<path class="st0" d="M171.2,146.6c0.3,17.8-12.9,33.7-30.8,36.8c-10,1.7-19.2-0.4-28-5.1c-8.6-4.6-15.6-11-22.1-18
	c-0.8-0.8-1.2-0.8-2,0c-5.9,6.4-12.3,12.2-19.8,16.7c-6,3.6-12.4,6.1-19.3,6.7c-12.5,1.2-23.3-2.6-31.9-11.8
	c-5.5-5.8-8.7-12.9-9.7-20.8c-1-7.6,0.5-14.9,3.7-21.8c4.7-10.5,9.4-20.9,14.4-31.2c7.8-16.2,15.7-32.3,23.7-48.3
	c4.3-8.7,8.8-17.2,13.5-25.7c3.6-6.6,8.9-11.6,16.1-14.4c11.6-4.4,24.9-1,32.9,8.6c3.5,4.2,6,9,8.5,13.9c7.1,14,14.4,28,21.2,42.2
	c8.7,18.1,17.2,36.3,25.7,54.5c2.1,4.5,3.4,9.3,4,14.2C171.3,144.3,171.2,145.4,171.2,146.6z M18.1,146.6c0.2,1.9,0.3,3.7,0.7,5.6
	c2.5,11.3,11.9,19.9,24.2,20.8c6.2,0.5,12-1.2,17.5-4.1c8.2-4.3,14.7-10.5,20.9-17.3c0.5-0.6,0.5-1,0-1.5c-0.8-1-1.6-2-2.4-3
	c-6.3-8.3-11.9-16.9-15.7-26.7c-2.9-7.5-4.6-15.2-3.5-23.3c1.1-8,4.8-14.5,11.3-19.2c7-5.1,15-6.7,23.5-5.3c7,1.1,13,4.2,17.6,9.7
	c6.6,7.7,7.9,16.8,6.3,26.6c-1.3,8.2-4.6,15.6-8.7,22.7c-3.7,6.5-8,12.5-12.6,18.4c-0.4,0.5-0.8,0.9-0.1,1.6
	c5.7,6.2,11.8,12.1,19.2,16.4c7,4,14.5,6.1,22.6,4.6c12.1-2.3,21.1-12.7,21.5-25.5c0.1-5.1-1.3-9.9-3.5-14.4
	c-9.9-21.1-19.8-42.1-29.9-63.1c-5.2-10.7-10.7-21.3-16.2-31.9c-2.1-4.1-4.4-8.2-7.1-11.9c-6-7.9-17.2-9.3-25.2-3.4
	c-3.4,2.4-5.6,5.8-7.5,9.4c-4.2,8.1-8.5,16.1-12.5,24.3C51.2,70.5,44,85.1,36.9,99.8c-5.3,10.9-10.3,22-15.3,33.1
	C19.6,137.2,18.1,141.7,18.1,146.6z M89.3,142.3c0.3-0.4,0.5-0.6,0.6-0.7c4.6-5.9,8.8-12.1,12.2-18.8c3.6-7.1,6.4-14.4,6-22.5
	c-0.2-4.3-1.6-8.2-4.7-11.4c-5-5-11.1-6.5-17.9-5.4C77.1,85,70.7,91.3,70.4,101c-0.2,5.5,1.2,10.6,3.2,15.6
	c3.2,8.1,7.9,15.3,13,22.3C87.4,140,88.3,141.1,89.3,142.3z"/>
</svg>
