<?xml version="1.0" encoding="UTF-8"?>
<svg enable-background="new 0 0 591 184.2" version="1.1" viewBox="0 0 591 184.2" xml:space="preserve" xmlns="http://www.w3.org/2000/svg">
<style type="text/css">
	.st0{fill:#FE5A5E;}
</style>
<path class="st0" d="m176.7 142.8c0.3 17.8-12.9 33.7-30.8 36.8-10 1.7-19.2-0.4-28-5.1-8.6-4.6-15.6-11-22.1-18-0.8-0.8-1.2-0.8-2 0-5.9 6.4-12.3 12.2-19.8 16.7-6 3.6-12.4 6.1-19.3 6.7-12.5 1.2-23.3-2.6-31.9-11.8-5.5-5.8-8.7-12.9-9.7-20.8-1-7.6 0.5-14.9 3.7-21.8 4.7-10.5 9.4-20.9 14.4-31.2 7.7-16.2 15.6-32.3 23.6-48.3 4.3-8.7 8.8-17.2 13.5-25.7 3.6-6.6 8.9-11.6 16.1-14.4 11.6-4.4 24.9-1 32.9 8.6 3.5 4.2 6 9 8.5 13.9 7.1 14 14.4 28 21.2 42.2 8.7 18.1 17.2 36.3 25.7 54.5 2.1 4.5 3.4 9.3 4 14.2 0.1 1.2 0 2.4 0 3.5zm-153.1 0c0.2 1.9 0.3 3.7 0.7 5.6 2.5 11.3 11.9 19.9 24.2 20.8 6.2 0.5 12-1.2 17.5-4.1 8.2-4.3 14.7-10.5 20.9-17.3 0.5-0.6 0.5-1 0-1.5l-2.4-3c-6.3-8.3-11.9-16.9-15.7-26.7-2.9-7.5-4.6-15.2-3.5-23.3 1.1-8 4.8-14.5 11.3-19.2 7-5.1 15-6.7 23.5-5.3 7 1.1 13 4.2 17.6 9.7 6.6 7.7 7.9 16.8 6.3 26.6-1.3 8.2-4.6 15.6-8.7 22.7-3.7 6.5-8 12.5-12.6 18.4-0.4 0.5-0.8 0.9-0.1 1.6 5.7 6.2 11.8 12.1 19.2 16.4 7 4 14.5 6.1 22.6 4.6 12.1-2.3 21.1-12.7 21.5-25.5 0.1-5.1-1.3-9.9-3.5-14.4-9.9-21.1-19.8-42.1-29.9-63.1-5.2-10.7-10.7-21.3-16.2-31.9-2.1-4.1-4.4-8.2-7.1-11.9-6-7.9-17.2-9.3-25.2-3.4-3.4 2.4-5.6 5.8-7.5 9.4-4.3 8-8.5 16-12.6 24.2-7.3 14.5-14.5 29.1-21.5 43.8-5.3 10.9-10.3 22-15.3 33.1-2 4.3-3.5 8.8-3.5 13.7zm71.2-4.3c0.3-0.4 0.5-0.6 0.6-0.7 4.6-5.9 8.8-12.1 12.2-18.8 3.6-7.1 6.4-14.4 6-22.5-0.2-4.3-1.6-8.2-4.7-11.4-5-5-11.1-6.5-17.9-5.4-8.4 1.4-14.7 7.7-15.1 17.5-0.2 5.5 1.2 10.6 3.2 15.6 3.2 8.1 7.9 15.3 13 22.3 0.8 1.1 1.7 2.2 2.7 3.4z"/>
<path class="st0" d="m526.9 129.9v2.8c0 1.4-0.8 2.2-2.2 2.3h-13.3c-0.8 0-1.1-0.3-1-1.1v-0.7-94.6c0-1.8 0-1.8 1.7-1.8h13.2c1.7 0 1.7 0 1.7 1.6v33.9 1.9c0.6-0.4 0.9-0.6 1.1-0.9 3.6-3.4 7.8-5.3 12.7-5.9 13.8-1.6 27.4 5.2 33.8 17.9 2.8 5.6 4 11.6 3.8 17.8-0.3 9.4-3.5 17.5-10.3 24.2-5.2 5.1-11.5 8-18.7 9-5.3 0.8-10.6 0.5-15.4-1.9-2.1-1.1-3.9-2.7-5.9-4-0.2-0.2-0.4-0.4-0.6-0.5h-0.6zm0-28.1c0 3 0.2 6-0.1 9-0.2 2.7 0.9 4.4 2.8 5.9 0.3 0.3 0.7 0.5 1 0.8 6.4 4.9 16.3 4.4 22.6 0.4 3.6-2.3 6.1-5.4 7.3-9.4 1.3-4 1.4-8.1 0.3-12.2-1.3-4.8-4-8.5-8.3-10.9-2.5-1.4-5.3-2.2-8.2-2.6-6.7-0.8-12.3 1.3-16.9 6.3-0.4 0.5-0.7 1.3-0.7 1.9 0.1 3.6 0.2 7.2 0.2 10.8z"/>
<path class="st0" d="m382.1 74.2c0.5-0.4 0.8-0.6 1-0.8 4.3-4.1 9.5-6 15.4-6.2 9.3-0.2 17.5 2.7 24.4 9.1 5.5 5.2 8.8 11.7 10 19.1 1.4 8 0.5 15.8-3.3 23.1-5.3 10.3-13.8 16.2-25.2 17.9-6.1 0.9-11.9 0.3-17.2-2.9-1.3-0.8-2.5-1.9-3.7-2.8-0.4-0.3-0.7-0.6-1-0.9-0.1 0-0.2 0.1-0.3 0.1v2c0 2.4-0.7 3.1-3 3.1h-12c-1.6 0-1.6 0-1.6-1.6v-95-0.6c-0.1-0.7 0.3-1 1-1h14.6c1.1 0 1 0.7 1 1.4v24.5 10c-0.1 0.3-0.1 0.7-0.1 1.5zm0 27.6c0 3.1 0.2 6.2-0.1 9.2-0.2 2.5 0.8 4.1 2.6 5.5 0.4 0.3 0.9 0.7 1.3 1 4.7 3.4 9.9 4 15.4 3 4.9-0.9 9-3.2 12-7.3 2.9-4 3.8-8.6 3.4-13.5-0.4-4.5-2-8.4-5.2-11.7-3.3-3.3-7.3-4.8-11.9-5.4-6.6-0.8-12.2 1.3-16.7 6.2-0.5 0.5-0.7 1.3-0.8 2v11z"/>
<path class="st0" d="m263.4 129.9c-0.2 0.2-0.5 0.4-0.7 0.6-3.9 3.8-8.7 5.8-14.2 6.2-17.3 1.2-31.4-10-35-25.3-3.1-13.1-0.5-25 9.2-34.8 5.3-5.4 12-8.2 19.5-9.1 5-0.6 9.9-0.3 14.4 1.9 2.1 1 3.9 2.6 5.9 3.9 0.3 0.2 0.6 0.5 0.9 0.8 0.1 0 0.2-0.1 0.4-0.1v-2.4c0-1.7 0.8-2.6 2.6-2.6h12.7c1 0 1.3 0.2 1.3 1.3v63.6c0 0.9-0.3 1.3-1.2 1.3h-12.8c-1.7 0-2.5-0.8-2.5-2.6v-2.4c-0.2-0.2-0.3-0.3-0.5-0.3zm0.4-28c0-3.1-0.2-6.2 0.1-9.3 0.2-2.3-0.8-3.9-2.5-5.2-0.2-0.1-0.4-0.3-0.6-0.5-4.7-3.7-9.9-5-15.8-3.9-5.1 0.9-9.5 3.1-12.5 7.4s-3.9 9.1-3.3 14.2c0.7 5.5 3.1 9.9 7.7 13 4 2.7 8.4 3.6 13.1 3.4 5.2-0.2 9.6-2.3 12.9-6.3 0.5-0.5 0.7-1.4 0.7-2.2 0.2-3.5 0.2-7.1 0.2-10.6z"/>
<path class="st0" d="m456.7 74c0.3-0.2 0.6-0.4 0.8-0.6 3.8-3.5 8.3-5.4 13.5-5.9 8.4-0.9 15.9 0.9 22.5 6.4 4.2 3.6 6.5 8.2 7.2 13.5 0.3 2.5 0.5 5.1 0.5 7.6 0.1 12.8 0 25.5 0 38.3 0 1.7 0 1.7-1.7 1.7h-13.6c-1.1 0-1.4-0.3-1.3-1.4 0-12.5 0.1-25 0-37.5 0-2.3-0.4-4.6-1-6.8-1.2-4-4.1-6.1-8.2-6.8-6.4-1.1-11.9 0.7-16.6 5.1-0.9 0.8-1.3 1.7-1.3 2.9 0 14.3 0 28.6 0.1 42.9 0 1.2-0.3 1.6-1.5 1.6-4.6-0.1-9.1-0.1-13.7 0-1 0-1.5-0.2-1.5-1.4v-63.3c0-1 0.3-1.4 1.3-1.4 3.9 0.1 7.8 0 11.6 0 1.7 0 2.5 0.8 2.5 2.5v2.5c0.1 0 0.3 0.1 0.4 0.1z"/>
<path class="st0" d="m335.5 74c0.6-0.6 1.2-1.1 1.8-1.7 5.2-4.1 11-5.8 17.6-4.9 3.2 0.4 3.2 0.4 3.2 3.7v10.7c0 1-0.1 1.3-1.3 1.1-5.5-1.2-10.9-1.1-16 1.4-0.6 0.3-1.3 0.7-1.9 1.1-2.7 1.6-4 3.6-4 7 0.3 13.6 0.1 27.3 0.1 40.9 0 1.6 0 1.6-1.6 1.6h-13.6c-1.1 0-1.5-0.3-1.5-1.5v-63.2c0-1.1 0.3-1.5 1.4-1.4 4.2 0.1 8.5 0 12.7 0 1.7 0 2.5 0.8 2.5 2.5v2.5c0.3 0.1 0.5 0.1 0.6 0.2z"/>
<path class="st0" d="m291.1 101.9v-31.5c0-1.1 0.3-1.5 1.5-1.5 4.6 0.1 9.2 0.1 13.8 0 1 0 1.4 0.3 1.4 1.3v63.4c0 1-0.3 1.3-1.3 1.3-4.7 0-9.4-0.1-14 0-1.1 0-1.3-0.4-1.3-1.4 0-10.5-0.1-21-0.1-31.6z"/>
<path class="st0" d="m299.5 59.3c-6.2 0-11.3-5.1-11.2-11.3 0.1-5.9 4.4-11.2 11.3-11.2 6.8 0 11.2 5.3 11.3 11.3 0 6.2-5.1 11.2-11.4 11.2z"/>
</svg>
